<?xml version="1.0" standalone="no"?>
<!DOCTYPE svg PUBLIC "-//W3C//DTD SVG 20010904//EN"
 "http://www.w3.org/TR/2001/REC-SVG-20010904/DTD/svg10.dtd">
<svg version="1.0" xmlns="http://www.w3.org/2000/svg"
 width="1024.000000pt" height="1024.000000pt" viewBox="0 0 1024.000000 1024.000000"
 preserveAspectRatio="xMidYMid meet">

<g transform="translate(0.000000,1024.000000) scale(0.100000,-0.100000)"
fill="#000000" stroke="none">
<path d="M6315 8034 c-22 -10 -59 -31 -83 -49 -44 -34 -196 -192 -225 -235
-24 -35 -21 -74 8 -108 23 -27 29 -30 57 -21 20 5 60 38 103 82 52 55 91 85
154 117 105 55 151 97 151 138 0 72 -82 110 -165 76z"/>
<path d="M6405 7724 c-33 -14 -70 -29 -82 -34 -50 -21 -17 -117 49 -145 l29
-12 -46 -17 c-25 -10 -59 -29 -75 -43 -63 -53 -24 -133 64 -133 56 1 237 64
259 91 36 45 5 139 -46 139 -12 0 -29 5 -37 10 -12 8 -10 14 14 39 37 38 40
86 7 113 -31 24 -64 22 -136 -8z m82 -160 c-3 -3 -12 -4 -19 -1 -8 3 -5 6 6 6
11 1 17 -2 13 -5z"/>
<path d="M3186 7715 c-54 -59 -36 -127 74 -279 63 -88 73 -96 121 -96 42 0 63
14 89 56 30 47 23 95 -24 168 -100 157 -201 215 -260 151z"/>
<path d="M5820 7712 c-37 -37 -39 -81 -10 -191 19 -72 26 -161 14 -174 -3 -3
-26 10 -51 29 -74 56 -155 41 -169 -31 -4 -23 4 -48 35 -107 23 -43 41 -83 41
-90 -1 -7 -11 -26 -24 -42 l-24 -29 -124 18 c-166 23 -602 32 -747 15 -142
-17 -335 -67 -506 -130 -132 -50 -235 -73 -235 -54 0 5 16 34 35 64 51 80 45
135 -19 160 -35 13 -106 -16 -131 -54 -14 -21 -20 -24 -31 -15 -20 16 -19 21
31 132 51 112 52 142 8 177 -59 46 -146 4 -176 -85 -29 -85 -42 -191 -29 -240
27 -101 146 -260 238 -315 76 -46 133 -46 221 -2 88 45 318 119 458 147 293
60 627 59 941 -1 50 -9 102 -14 117 -10 41 10 101 76 140 153 18 37 41 82 50
98 17 31 140 352 160 416 10 34 8 39 -24 79 -75 93 -84 101 -121 107 -32 5
-41 1 -68 -25z"/>
<path d="M3579 7625 c-38 -20 -57 -78 -65 -192 -6 -88 -4 -103 14 -139 27 -52
68 -72 109 -52 42 20 55 59 66 195 12 137 6 163 -45 189 -33 17 -46 17 -79 -1z"/>
<path d="M7517 7610 c-69 -12 -114 -32 -215 -94 -83 -52 -177 -146 -177 -178
0 -6 18 -17 40 -25 53 -19 115 -7 227 46 48 22 126 52 174 67 93 29 130 54
139 94 8 35 -26 76 -73 90 -41 11 -47 11 -115 0z"/>
<path d="M6931 7471 c-31 -31 -35 -63 -22 -173 13 -113 21 -135 56 -144 91
-23 148 68 125 198 -16 94 -44 132 -97 136 -32 2 -47 -2 -62 -17z"/>
<path d="M3076 7289 c-14 -17 -26 -37 -26 -45 0 -24 28 -71 47 -79 27 -11 213
-45 249 -45 44 0 84 34 84 71 0 58 -147 129 -270 129 -53 0 -61 -3 -84 -31z"/>
<path d="M6245 7250 c-75 -36 -114 -84 -96 -119 45 -84 250 -69 297 21 44 85
-91 151 -201 98z"/>
<path d="M7442 7250 c-44 -10 -55 -23 -54 -61 1 -40 43 -86 91 -99 20 -5 77
-10 127 -10 112 0 144 18 144 79 0 43 -25 72 -79 90 -38 12 -178 13 -229 1z"/>
<path d="M6658 7230 c-34 -27 -37 -67 -8 -140 24 -60 24 -70 6 -95 -14 -19
-15 -19 -71 -1 -78 24 -105 12 -105 -49 0 -22 4 -45 9 -50 14 -14 -16 -73 -41
-81 -45 -14 -87 6 -168 81 -44 41 -87 75 -96 75 -27 0 -80 -37 -92 -65 -20
-43 3 -111 55 -163 52 -51 192 -122 257 -129 79 -9 139 42 374 315 69 81 72
86 72 135 -1 132 -113 230 -192 167z"/>
<path d="M3230 7068 c-52 -15 -71 -36 -68 -76 5 -54 35 -70 157 -83 97 -9 107
-9 130 9 38 28 40 76 5 113 -41 43 -144 60 -224 37z"/>
<path d="M7322 7054 c-43 -20 -27 -115 23 -134 44 -17 177 -23 222 -11 55 15
75 36 71 74 -6 55 -39 68 -179 73 -68 2 -130 1 -137 -2z"/>
<path d="M2244 6986 c-17 -8 -39 -24 -48 -37 -45 -65 3 -111 179 -175 72 -25
165 -53 209 -61 43 -8 100 -23 127 -33 60 -24 183 -101 303 -190 134 -98 165
-116 247 -142 54 -16 99 -23 164 -23 105 0 130 12 213 99 40 42 52 62 52 87 0
59 -56 123 -115 129 -37 4 -43 0 -70 -46 -48 -81 -117 -103 -202 -64 -65 29
-342 219 -386 264 -21 22 -52 66 -68 97 -15 31 -40 66 -55 78 -47 37 -122 21
-125 -27 -2 -26 -2 -25 5 -55 l6 -27 -99 50 c-103 51 -223 90 -276 90 -16 -1
-44 -7 -61 -14z"/>
<path d="M7154 6864 c-63 -14 -69 -86 -11 -142 38 -37 152 -82 208 -82 55 0
89 34 89 91 0 51 -33 86 -106 111 -52 19 -144 30 -180 22z"/>
<path d="M3320 6849 c-45 -18 -60 -39 -60 -85 0 -34 5 -47 26 -63 23 -18 41
-21 123 -21 78 0 102 4 129 20 66 40 67 107 2 141 -39 21 -175 26 -220 8z"/>
<path d="M7684 6706 c-26 -19 -49 -66 -64 -131 -6 -27 -16 -55 -22 -63 -19
-23 -75 -47 -258 -112 -147 -52 -189 -63 -261 -67 l-86 -6 -78 73 c-43 39 -88
77 -101 82 -57 26 -111 -29 -101 -104 7 -55 51 -123 108 -168 87 -69 187 -85
334 -55 117 24 387 126 544 204 49 25 113 46 181 60 58 12 160 38 228 57 108
31 132 35 195 30 211 -18 215 -18 245 -2 59 31 63 110 7 154 -107 85 -478 33
-690 -97 -44 -27 -81 -48 -82 -47 -1 1 12 29 29 63 l30 62 -18 38 c-18 36 -22
38 -69 41 -32 2 -57 -3 -71 -12z"/>
<path d="M6955 6667 c-67 -31 -68 -59 -3 -132 40 -46 82 -65 146 -65 59 0 82
20 82 71 0 44 -20 72 -73 103 -53 32 -113 40 -152 23z"/>
<path d="M2405 6656 c-146 -23 -195 -53 -195 -118 0 -47 42 -78 104 -78 124 1
240 32 276 75 19 23 2 83 -30 106 -36 26 -65 29 -155 15z"/>
<path d="M2554 6431 c-114 -41 -154 -78 -154 -142 0 -50 39 -83 91 -76 44 6
186 71 216 99 27 25 38 70 24 96 -12 22 -61 42 -100 41 -14 0 -49 -9 -77 -18z"/>
<path d="M8166 6327 c-8 -7 -22 -29 -31 -50 -16 -40 -19 -42 -75 -51 -55 -10
-84 -38 -83 -80 2 -79 61 -105 236 -106 160 0 187 9 212 74 25 65 13 84 -89
150 -95 62 -146 80 -170 63z"/>
<path d="M2736 6256 c-90 -40 -122 -66 -131 -107 -15 -69 23 -119 91 -119 53
0 177 90 210 152 20 39 17 65 -9 83 -45 29 -78 27 -161 -9z"/>
<path d="M2918 6101 c-80 -51 -95 -92 -55 -152 31 -46 68 -49 130 -10 51 33
87 82 87 119 0 13 -11 34 -25 47 -33 34 -79 33 -137 -4z"/>
<path d="M7730 6050 c-41 -41 -13 -112 73 -187 94 -82 217 -56 217 46 0 50
-22 71 -124 120 -95 46 -136 51 -166 21z"/>
<path d="M2305 5966 c-8 -19 -15 -42 -15 -51 0 -21 -17 -19 -64 9 -52 30 -114
47 -176 48 -152 1 -174 -150 -29 -192 82 -24 160 -31 217 -19 53 11 65 10 152
-16 257 -75 385 -93 546 -76 178 19 256 50 323 130 77 91 76 144 -3 182 -60
30 -88 20 -156 -51 -30 -33 -68 -64 -85 -71 -16 -6 -74 -13 -127 -16 -77 -5
-116 -1 -195 16 -153 34 -170 39 -246 86 -40 24 -84 47 -100 50 -24 6 -29 3
-42 -29z"/>
<path d="M7530 5911 c0 -23 6 -56 14 -74 18 -43 76 -93 126 -108 36 -11 44
-10 68 8 40 30 49 65 29 109 -14 28 -31 41 -82 65 -36 16 -86 32 -110 36 l-45
6 0 -42z"/>
<path d="M7310 5900 c-27 -27 -25 -59 6 -106 79 -118 160 -156 203 -95 37 51
23 88 -62 169 -46 43 -62 52 -91 52 -23 0 -43 -7 -56 -20z"/>
<path d="M6162 5819 c-80 -40 -123 -122 -124 -233 0 -82 16 -126 64 -175 158
-161 426 -30 405 199 -8 97 -67 179 -154 215 -52 22 -139 19 -191 -6z"/>
<path d="M3865 5801 c-106 -49 -162 -175 -136 -303 31 -149 176 -223 325 -168
154 58 206 268 99 408 -56 74 -197 105 -288 63z"/>
<path d="M7017 5762 c-32 -35 -20 -60 75 -164 102 -110 154 -144 268 -171 227
-56 463 -65 827 -32 173 16 227 13 283 -16 19 -10 67 -21 107 -25 l72 -7 36
36 c57 57 39 128 -40 161 -89 38 -308 46 -530 21 -223 -25 -352 -19 -604 30
-103 20 -135 31 -191 65 -37 23 -90 49 -118 59 -28 11 -64 28 -81 40 -36 26
-82 27 -104 3z"/>
<path d="M2118 5656 c-111 -42 -142 -87 -102 -144 8 -12 22 -44 30 -72 24 -80
65 -87 189 -31 75 34 105 69 105 123 0 34 -7 46 -54 94 -63 62 -79 65 -168 30z"/>
<path d="M2399 5442 c-99 -64 -148 -155 -117 -220 15 -30 56 -40 100 -23 37
14 158 158 158 188 0 27 -17 64 -34 75 -22 15 -63 7 -107 -20z"/>
<path d="M5530 5453 c-14 -9 -48 -37 -75 -63 -71 -66 -146 -90 -300 -97 -123
-6 -219 4 -311 32 -49 14 -66 24 -156 93 -37 29 -49 33 -83 29 -51 -7 -75 -36
-75 -92 0 -39 5 -47 60 -98 119 -111 223 -140 505 -141 159 -1 200 2 255 18
111 33 187 72 246 128 88 83 106 137 59 183 -29 30 -88 34 -125 8z"/>
<path d="M3107 5420 c-28 -33 -47 -106 -47 -179 0 -54 -13 -70 -119 -141 -129
-86 -215 -118 -460 -170 -365 -78 -407 -94 -437 -167 -32 -76 21 -133 125
-133 29 0 51 -5 51 -10 0 -6 -9 -28 -20 -50 -23 -46 -26 -93 -6 -109 58 -48
200 12 236 99 11 27 10 33 -14 65 -28 36 -48 43 -141 47 l-50 3 36 22 c38 24
131 46 239 58 90 9 272 58 352 94 85 38 173 93 220 139 21 20 39 34 41 31 3
-2 14 -31 26 -64 45 -123 127 -251 254 -400 l35 -40 -60 -80 c-80 -106 -83
-110 -233 -244 -227 -203 -255 -237 -255 -314 0 -85 66 -125 150 -93 25 10 57
20 72 23 l28 5 -20 -57 c-12 -35 -20 -84 -20 -123 0 -60 2 -66 34 -98 23 -23
43 -34 63 -34 34 0 104 42 166 99 l43 39 19 -59 c10 -33 34 -77 53 -99 29 -35
39 -40 76 -40 66 0 90 26 162 174 104 216 150 254 314 266 108 7 130 17 130
61 0 33 -43 69 -104 89 -62 20 -168 7 -243 -30 -92 -45 -144 -102 -187 -206
-20 -47 -36 -92 -36 -100 0 -25 -18 -15 -25 15 -12 55 -81 96 -137 80 -15 -4
-53 -25 -85 -48 -68 -48 -83 -43 -65 24 32 119 -5 175 -115 175 l-47 0 39 41
c22 22 75 70 117 106 73 60 239 234 283 296 l20 27 54 -40 c110 -83 387 -198
612 -255 81 -21 317 -61 549 -95 83 -12 423 -12 530 0 390 43 824 158 1039
276 35 19 67 32 72 27 4 -4 26 -55 48 -113 56 -143 126 -269 222 -397 85 -114
87 -127 15 -103 -68 22 -135 -42 -137 -130 0 -25 -4 -53 -8 -64 -6 -16 -11
-14 -41 20 -47 55 -79 74 -123 74 -53 0 -88 -21 -133 -80 -57 -75 -63 -69 -57
63 5 98 3 119 -16 168 -38 100 -137 187 -231 204 -69 12 -170 -64 -156 -118 5
-20 16 -27 58 -37 77 -18 127 -49 153 -95 20 -35 24 -57 27 -180 5 -151 18
-200 59 -229 54 -37 130 -14 208 64 59 59 58 59 117 -22 38 -51 96 -88 137
-88 37 0 90 41 104 80 9 23 11 63 7 118 -7 95 -8 94 85 62 59 -20 89 -18 129
8 50 33 68 126 38 208 -13 37 -94 184 -148 269 -37 60 -147 281 -175 355 l-25
65 44 35 c104 84 258 256 323 361 47 75 51 77 73 32 11 -21 55 -72 99 -113
125 -121 282 -191 554 -249 79 -17 167 -38 195 -46 28 -8 78 -15 111 -15 51 0
63 4 84 26 30 32 32 93 4 125 -30 33 -69 46 -200 64 -135 18 -326 65 -416 101
-129 53 -212 115 -294 223 l-57 74 18 73 c27 118 8 185 -56 199 -44 10 -85
-17 -104 -67 -8 -24 -26 -72 -39 -108 -63 -169 -136 -280 -283 -427 -341 -342
-980 -539 -1679 -520 -362 10 -615 55 -888 156 -313 117 -522 270 -668 491
-87 131 -139 311 -139 478 0 76 -11 99 -55 118 -50 21 -70 17 -98 -16z"/>
<path d="M2621 5353 c-87 -93 -109 -165 -64 -215 18 -20 64 -24 93 -8 10 5 42
45 70 87 47 70 52 82 47 120 -6 54 -21 73 -60 73 -25 0 -42 -12 -86 -57z"/>
<path d="M2804 5365 c-13 -20 -19 -53 -22 -114 -3 -75 -1 -90 16 -111 l20 -25
22 20 c27 24 90 147 90 174 0 29 -41 70 -77 77 -26 5 -34 2 -49 -21z"/>
<path d="M6515 5286 c-39 -17 -55 -37 -62 -79 -8 -50 36 -97 97 -104 55 -6
128 29 149 71 12 25 11 31 -6 55 -22 29 -97 71 -128 71 -11 -1 -34 -7 -50 -14z"/>
<path d="M3575 5226 c-21 -9 -47 -25 -57 -38 -23 -31 -23 -90 0 -111 27 -24
73 -22 79 3 5 20 6 19 29 -5 54 -58 144 -17 144 66 0 76 -99 120 -195 85z"/>
<path d="M8088 5200 c-32 -25 -37 -63 -12 -98 8 -12 42 -40 75 -63 128 -86
199 -101 250 -50 32 33 37 67 15 109 -19 38 -179 114 -250 120 -41 3 -56 0
-78 -18z"/>
<path d="M7291 5144 c-33 -42 -31 -103 4 -182 19 -41 32 -56 60 -68 39 -16 57
-11 89 25 27 29 24 97 -6 163 -32 69 -52 88 -93 88 -24 0 -39 -7 -54 -26z"/>
<path d="M7535 5145 c-34 -33 -32 -68 9 -157 71 -156 151 -197 205 -107 26 42
12 94 -45 181 -73 110 -120 133 -169 83z"/>
<path d="M7812 5147 c-42 -45 -39 -75 17 -154 61 -86 115 -141 158 -159 43
-18 85 -3 108 40 29 53 8 95 -99 204 -81 82 -95 92 -127 92 -24 0 -42 -7 -57
-23z"/>
<path d="M3048 4680 c-22 -13 -42 -84 -33 -119 10 -41 63 -117 90 -129 30 -14
69 -2 83 25 16 31 22 97 12 134 -19 68 -105 118 -152 89z"/>
<path d="M2833 4615 c-50 -21 -67 -56 -60 -122 7 -72 44 -142 86 -167 31 -18
35 -18 67 -2 44 20 57 56 50 128 -6 57 -37 138 -59 156 -23 18 -52 21 -84 7z"/>
<path d="M2433 4518 c-64 -87 -73 -105 -73 -150 0 -61 31 -108 70 -108 41 0
104 58 137 127 14 29 30 53 35 53 4 0 8 -27 8 -60 0 -53 3 -62 22 -69 52 -19
77 15 85 114 3 48 0 66 -16 92 -21 34 -68 51 -97 35 -10 -6 -29 -4 -53 4 -62
23 -75 18 -118 -38z"/>
<path d="M6829 4556 c-31 -18 -76 -98 -85 -152 -5 -34 -2 -45 20 -71 61 -73
132 -62 181 29 39 71 41 152 5 179 -35 25 -89 32 -121 15z"/>
<path d="M7120 4447 c-42 -21 -60 -71 -60 -167 0 -98 11 -144 41 -176 47 -50
124 -35 150 28 30 72 5 254 -41 300 -31 31 -52 34 -90 15z"/>
<path d="M7634 4413 c-30 -6 -52 -33 -60 -70 -6 -28 0 -38 63 -101 75 -77 124
-100 188 -88 67 13 94 97 48 148 -28 31 -157 107 -189 112 -16 2 -39 2 -50 -1z"/>
<path d="M7365 4375 c-35 -34 -32 -76 11 -179 58 -138 131 -183 188 -115 37
43 33 82 -14 178 -69 136 -128 173 -185 116z"/>
<path d="M4623 3700 c-59 -35 -71 -98 -28 -148 62 -73 155 -29 155 73 0 27 -8
44 -29 66 -34 34 -54 36 -98 9z"/>
<path d="M4882 3643 c-36 -14 -55 -110 -26 -133 25 -22 75 -16 96 11 43 52
-10 146 -70 122z"/>
</g>
</svg>
